<?xml version="1.0" encoding="UTF-8"?>
<!DOCTYPE svg PUBLIC "-//W3C//DTD SVG 1.1//EN" "http://www.w3.org/Graphics/SVG/1.1/DTD/svg11.dtd">
<!-- Creator: CorelDRAW 2019 (64-Bit) -->
<svg xmlns="http://www.w3.org/2000/svg" xml:space="preserve" width="1418px" height="720px" version="1.1" style="shape-rendering:geometricPrecision; text-rendering:geometricPrecision; image-rendering:optimizeQuality; fill-rule:evenodd; clip-rule:evenodd"
viewBox="0 0 1418 719.84"
 xmlns:xlink="http://www.w3.org/1999/xlink"
 xmlns:xodm="http://www.corel.com/coreldraw/odm/2003">
 <defs>
  <style type="text/css">
   <![CDATA[
    .fil3 {fill:#FEFEFE}
    .fil1 {fill:#E62129}
    .fil2 {fill:#FDDF58}
    .fil0 {fill:#2F318B}
   ]]>
  </style>
 </defs>
 <g id="Layer_x0020_1">
  <metadata id="CorelCorpID_0Corel-Layer"/>
  <polygon class="fil0" points="0,0 1418,0 1418,719.84 0,719.84 "/>
  <path class="fil1" d="M311.34 364.97c-71.2,78.08 -116.52,178.44 -147.33,291.3 -33.48,-21.87 -66.96,-43.75 -100.45,-65.62 59.54,-89.57 137.74,-167.53 247.78,-225.68zm247.87 -177.34c-5.91,24.4 -11.81,51.55 -17.72,75.95 -64.72,11.48 -133.04,43.61 -202.65,83.22 54.75,-69.15 138.24,-114.92 220.37,-159.17z"/>
  <path class="fil2" d="M107.86 503.9c0,-9.89 0,-19.77 0,-29.66 23.38,-15.87 46.28,-25.94 68.92,-32.77 -27.31,17.27 -49.9,38.39 -68.92,62.43zm21.71 -57.43c7.95,-19.6 15.9,-39.2 23.85,-58.8 50.54,-19.7 99.68,-26.76 148.04,-26.73 -61.62,20.49 -117.96,50.79 -171.89,85.53zm-52.34 -40.04c1.64,-8.17 4.12,-16.19 7.46,-24.08 21.82,-2.94 43.64,-4.18 65.46,-1.69 -26.85,6.55 -50.6,15.6 -72.92,25.77zm56.56 -37.55c3.66,-8.33 7.32,-16.65 10.99,-24.98 28.51,-0.34 55.51,3.84 80.69,13.49 -30.57,1 -61.12,5.16 -91.68,11.49zm51.54 -30.27c8.04,-8.96 16.07,-17.93 24.11,-26.9 29.02,10.68 57.27,23.18 84.58,37.88 -36.23,-5.73 -72.46,-8.69 -108.69,-10.98zm-95.29 -39.6c7.18,-8.06 14.36,-16.13 21.54,-24.2 27.55,9.13 54.34,19.26 80.55,30.17 -33.81,-3.32 -67.84,-5.33 -102.09,-5.97zm101.49 -67.08c6.32,-3.38 12.63,-6.76 18.95,-10.14 15.07,14.3 29.03,31.91 41.88,52.86 -19.2,-15.96 -39.41,-30.31 -60.83,-42.72zm43.03 59.89c8.09,-2.74 16.18,-5.48 24.28,-8.23 12.55,17.42 24.86,35.29 36.9,53.73 -18.88,-16.38 -39.75,-31.17 -61.18,-45.5zm59.89 -41.1c3.09,26.46 7.5,52.92 15.58,79.38 -12.84,-17.8 -24.15,-40.22 -34.69,-64.97 6.37,-4.81 12.74,-9.61 19.11,-14.41zm11.33 -32.47c10.11,-1.95 20.22,-3.9 30.34,-5.85 -8.5,37.7 -11.56,75.4 -10.12,113.1 -14.11,-31.85 -18.2,-69 -20.22,-107.25zm73.17 -10.63c10.46,6.25 20.91,12.5 31.36,18.75 -27.79,32.7 -53.77,66.54 -75.31,103.15 8.96,-39.6 26.32,-80.73 43.95,-121.9zm-13.56 -44.11c6.73,0.37 13.46,0.74 20.19,1.1 -15.33,25.55 -28.1,52.38 -38.54,80.38 2.33,-25.5 8.2,-52.55 18.35,-81.48zm-11.84 -78.7c10.45,1.3 20.9,2.61 31.35,3.92 -18.69,32.09 -34.22,66.29 -43.51,104.66 -6.44,-32.91 1.81,-70.42 12.16,-108.58zm189.24 -21.25c14.05,7.87 28.1,15.75 42.14,23.62 -56.4,31.6 -112.16,68.21 -164.86,128.28 22.16,-49.99 64.75,-100.68 122.72,-151.9z"/>
  <path class="fil3" d="M380.46 522.38l-53.84 0 0 -166.08 41.64 0c13.13,0 23.39,1.87 30.73,5.52 7.38,3.69 12.98,8.76 16.86,15.21 3.89,6.5 5.79,13.96 5.79,22.44 0,16.32 -8.08,28 -24.24,35.06 11.61,2.32 20.86,7.31 27.74,14.98 6.87,7.71 10.29,16.88 10.29,27.59 0,8.48 -2.1,16.03 -6.25,22.68 -4.2,6.65 -10.3,12.09 -18.38,16.31 -8.08,4.18 -18.22,6.29 -30.34,6.29zm-11.5 -144.9l-19.58 0 0 49.91 15.15 0c12.13,0 20.75,-2.39 25.88,-7.26 5.12,-4.83 7.69,-11.08 7.69,-18.75 0,-15.95 -9.71,-23.9 -29.14,-23.9zm1.71 71.09l-21.29 0 0 52.67 22.42 0c12.47,0 20.9,-1.01 25.33,-3.04 4.43,-2.03 8,-5.2 10.72,-9.46 2.68,-4.3 4.04,-8.88 4.04,-13.79 0,-5.07 -1.44,-9.7 -4.27,-13.92 -2.88,-4.18 -6.92,-7.3 -12.12,-9.37 -5.25,-2.07 -13.52,-3.09 -24.83,-3.09zm151.69 7.63l0 46.78c0,3.75 1.27,5.63 3.73,5.63 1.58,0 3.7,-0.84 6.47,-2.28 9.5,-4.99 2.15,12.03 -6.08,16.22 -2.79,1.41 -5.95,1.75 -9.12,1.75 -9.04,0 -14.4,-3.67 -16.02,-11.03 -9,7.19 -18.56,10.79 -28.71,10.79 -7.42,0 -13.61,-2.54 -18.56,-7.6 -4.96,-5.07 -7.46,-11.44 -7.46,-19.08 0,-6.95 2.42,-13.16 7.26,-18.63 4.84,-5.48 11.74,-9.81 20.62,-12.99l27.09 -9.56 0 -5.89c0,-13.23 -6.43,-19.85 -19.28,-19.85 -11.54,0 -22.8,6.13 -33.71,18.42l0 -23.81c8.21,-9.97 20.03,-14.96 35.46,-14.96 11.54,0 20.78,3.11 27.76,9.32 2.3,2 4.4,4.66 6.26,7.97 1.87,3.3 3.06,6.61 3.54,9.92 0.51,3.35 0.75,9.6 0.75,18.88zm-20.78 44.41l0 -32.69 -14.2 5.64c-7.18,2.94 -12.29,5.92 -15.27,8.91 -2.97,2.98 -4.48,6.7 -4.48,11.19 0,4.54 1.43,8.25 4.24,11.11 2.86,2.9 6.51,4.33 10.99,4.33 6.74,0 12.97,-2.86 18.72,-8.49zm69.17 -88.33l0 13.97c9.36,-10.74 20.03,-16.14 31.95,-16.14 6.62,0 12.76,1.76 18.43,5.31 5.7,3.56 10.03,8.42 12.98,14.63 2.95,6.17 4.45,15.97 4.45,29.37 0,20.99 0,41.98 0,62.96 -15.15,2.16 -17.7,-6.04 -20.98,-13.63l0 -49.08c0,-11.28 -1.65,-19.28 -4.96,-24.1 -3.3,-4.87 -8.85,-7.28 -16.61,-7.28 -9.91,0 -18.34,5.15 -25.26,15.45l0 78.64 -21.46 0 0 -110.1 21.46 0zm156.25 0l24.17 0 -44.56 53.18c17.56,18.71 35.51,38.21 53.07,56.92 -12.29,2.28 -26.58,-1 -40.93,-13.38l-39.12 -42.75 47.37 -53.97zm-48.28 -57.12l0 167.22 -21.42 0c0,-48.95 0,-97.89 0,-146.84 1.44,-7.84 8.58,-14.63 21.42,-20.38zm170.16 1.76l0 165.06c0,15.4 -1.57,26.8 -4.67,34.19 -3.11,7.36 -8.1,13.28 -15.03,17.69 -6.93,4.46 -15.27,6.66 -25.02,6.66 -1.5,0 -4.07,-0.24 -7.7,-0.73l-4.35 -22.27 6 0c6.77,0 11.97,-0.82 15.51,-2.49 3.59,-1.68 6.45,-4.62 8.51,-8.87 2.09,-4.2 3.14,-13.19 3.14,-26.92 0,-45.24 0,-90.48 0,-135.73 0.55,-15.73 10.05,-23.07 23.61,-26.59zm103.13 74.61l38.06 -39.94 0 22.61c11.35,0 22.7,0 34.05,0 -1.53,6.22 -4.26,12.53 -15.32,19.48l-18.73 0 0 53.61c0,12.54 4.87,18.79 14.59,18.79 7.26,0 14.94,-2.59 23.03,-7.83l0 20.21c-7.79,4.67 -16.3,7.02 -25.5,7.02 -9.27,0 -16.98,-2.88 -23.13,-8.68 -1.94,-1.75 -3.54,-3.69 -4.79,-5.89 -1.25,-2.19 -2.32,-5.03 -3.19,-8.56 -0.84,-3.53 -1.26,-10.23 -1.26,-20.17l0 -48.5 -17.81 0 0 -2.15zm177.98 39.93l-75.86 0c0.56,10.5 4,18.84 10.4,25.02 6.36,6.22 14.57,9.32 24.65,9.32 14.09,0 27.05,-4.44 38.93,-13.35l0 21.2c-6.56,4.47 -13.08,7.65 -19.52,9.56 -6.45,1.91 -14.01,2.85 -22.69,2.85 -11.89,0 -21.49,-2.53 -28.81,-7.53 -7.36,-5 -13.25,-11.71 -17.65,-20.18 -4.44,-8.46 -6.64,-18.27 -6.64,-29.37 0,-16.68 4.64,-30.27 13.96,-40.72 9.29,-10.46 21.37,-15.67 36.22,-15.67 14.28,0 25.73,5.09 34.21,15.26 8.52,10.17 12.8,23.8 12.8,40.88l0 2.73zm-75.38 -12.98l54.26 0c-0.52,-8.66 -3.08,-15.33 -7.61,-20.01 -4.52,-4.72 -10.64,-7.04 -18.28,-7.04 -7.64,0 -13.93,2.32 -18.81,7.04 -4.88,4.68 -8.08,11.35 -9.56,20.01zm198.14 -4.76c0,-11.66 4.22,-20.87 12.67,-27.65 8.44,-6.79 19.98,-10.16 34.57,-10.16 18.15,0 36.3,0 54.45,0 -2.72,6.8 -5.94,13.34 -15.08,16.9 -5.55,0 -11.1,0 -16.65,0 4.26,4.34 7.2,8.32 8.85,11.89 1.65,3.57 2.49,7.64 2.49,12.22 0,5.73 -1.61,11.33 -4.82,16.85 -3.22,5.52 -7.4,9.75 -12.43,12.67 -5.06,2.92 -13.39,5.28 -24.93,7.02 -8.08,1.18 -12.14,3.98 -12.14,8.45 0,2.52 1.53,4.63 4.54,6.25 3.02,1.63 8.49,3.29 16.45,5.04 13.27,2.92 21.79,5.24 25.61,6.9 3.82,1.66 7.24,4.06 10.29,7.15 5.19,5.23 7.8,11.81 7.8,19.73 0,10.39 -4.58,18.68 -13.75,24.89 -9.12,6.17 -21.39,9.26 -36.67,9.26 -15.48,0 -27.82,-3.13 -37.07,-9.34 -9.2,-6.22 -13.83,-14.58 -13.83,-25.05 0,-14.82 9.09,-24.37 27.22,-28.67 -7.23,-4.67 -10.85,-9.3 -10.85,-13.89 0,-3.49 1.56,-6.7 4.66,-9.54 3.1,-2.84 7.28,-4.95 12.54,-6.29 -15.96,-7.15 -23.92,-18.68 -23.92,-34.63zm40.29 -19.01c-5.79,0 -10.74,1.95 -14.84,5.93 -4.1,3.98 -6.11,8.73 -6.11,14.29 0,5.61 2.01,10.28 5.99,13.97 4.02,3.69 9.09,5.52 15.2,5.52 6.03,0 11.1,-1.87 15.16,-5.64 4.02,-3.78 6.03,-8.49 6.03,-14.09 0,-5.73 -2.01,-10.48 -6.11,-14.29 -4.1,-3.82 -9.17,-5.69 -15.32,-5.69zm-5.07 95.74c-7.19,0 -13.1,1.55 -17.73,4.63 -4.58,3.09 -6.87,7.07 -6.87,11.9 0,11.29 10.05,16.89 30.15,16.89 9.49,0 16.85,-1.38 22.08,-4.22 5.22,-2.81 7.84,-6.78 7.84,-11.94 0,-5.08 -3.3,-9.22 -9.9,-12.42 -6.59,-3.21 -15.11,-4.84 -25.57,-4.84zm-119.57 -118.17l0 13.97c9.36,-10.74 20.03,-16.14 31.96,-16.14 6.61,0 12.75,1.76 18.42,5.31 5.7,3.56 10.03,8.42 12.98,14.63 2.96,6.17 4.45,15.97 4.45,29.37 0,20.99 0,41.98 0,62.96 -15.15,2.16 -17.69,-6.04 -20.98,-13.63l0 -49.08c0,-11.28 -1.65,-19.28 -4.96,-24.1 -3.3,-4.87 -8.85,-7.28 -16.61,-7.28 -9.91,0 -18.34,5.15 -25.26,15.45l0 78.64 -21.45 0 0 -110.1 21.45 0zm-229.65 43.92l0 46.78c0,3.75 1.27,5.63 3.73,5.63 1.59,0 3.71,-0.84 6.47,-2.28 9.51,-4.99 2.16,12.03 -6.07,16.22 -2.79,1.41 -5.95,1.75 -9.12,1.75 -9.05,0 -14.4,-3.67 -16.03,-11.03 -9,7.19 -18.56,10.79 -28.71,10.79 -7.41,0 -13.6,-2.54 -18.56,-7.6 -4.96,-5.07 -7.45,-11.44 -7.45,-19.08 0,-6.95 2.42,-13.16 7.25,-18.63 4.84,-5.48 11.74,-9.81 20.63,-12.99l27.08 -9.56 0 -5.89c0,-13.23 -6.42,-19.85 -19.27,-19.85 -11.54,0 -22.8,6.13 -33.71,18.42l0 -23.81c8.21,-9.97 20.03,-14.96 35.45,-14.96 11.54,0 20.79,3.11 27.76,9.32 2.3,2 4.41,4.66 6.27,7.97 1.86,3.3 3.05,6.61 3.53,9.92 0.52,3.35 0.75,9.6 0.75,18.88zm-20.78 44.41l0 -32.69 -14.19 5.64c-7.18,2.94 -12.3,5.92 -15.27,8.91 -2.98,2.98 -4.48,6.7 -4.48,11.19 0,4.54 1.42,8.25 4.24,11.11 2.85,2.9 6.5,4.33 10.98,4.33 6.75,0 12.97,-2.86 18.72,-8.49z"/>
 </g>
</svg>
