<svg width="40" height="40" viewBox="0 0 40 40" fill="none" xmlns="http://www.w3.org/2000/svg">
<mask id="mask0_1549_918" style="mask-type:alpha" maskUnits="userSpaceOnUse" x="0" y="0" width="40" height="40">
<rect y="0.326172" width="40" height="39.3477" fill="#D9D9D9"/>
</mask>
<g mask="url(#mask0_1549_918)">
<path d="M20 21.6395C21.6111 21.6395 22.9861 21.0794 24.125 19.959C25.2639 18.8387 25.8333 17.4861 25.8333 15.9013C25.8333 14.3165 25.2639 12.9639 24.125 11.8436C22.9861 10.7233 21.6111 10.1631 20 10.1631C18.3889 10.1631 17.0139 10.7233 15.875 11.8436C14.7361 12.9639 14.1667 14.3165 14.1667 15.9013C14.1667 17.4861 14.7361 18.8387 15.875 19.959C17.0139 21.0794 18.3889 21.6395 20 21.6395ZM8.33333 34.7554C7.41667 34.7554 6.63194 34.4344 5.97917 33.7922C5.32639 33.1501 5 32.3782 5 31.4764V8.52361C5 7.62189 5.32639 6.84996 5.97917 6.20783C6.63194 5.5657 7.41667 5.24463 8.33333 5.24463H31.6667C32.5833 5.24463 33.3681 5.5657 34.0208 6.20783C34.6736 6.84996 35 7.62189 35 8.52361V31.4764C35 32.3782 34.6736 33.1501 34.0208 33.7922C33.3681 34.4344 32.5833 34.7554 31.6667 34.7554H8.33333ZM8.33333 31.4764H31.6667V29.591C30.1667 28.1428 28.4236 27.002 26.4375 26.1686C24.4514 25.3352 22.3056 24.9185 20 24.9185C17.6944 24.9185 15.5486 25.3352 13.5625 26.1686C11.5764 27.002 9.83333 28.1428 8.33333 29.591V31.4764Z" fill="white"/>
</g>
</svg>