<svg width="40" height="40" viewBox="0 0 40 40" fill="none" xmlns="http://www.w3.org/2000/svg">
<mask id="mask0_1621_1859" style="mask-type:alpha" maskUnits="userSpaceOnUse" x="0" y="0" width="40" height="40">
<rect y="0.326134" width="40" height="39.3477" fill="#D9D9D9"/>
</mask>
<g mask="url(#mask0_1621_1859)">
<path d="M28.3333 36.3949C26.0278 36.3949 24.0625 35.5956 22.4375 33.9971C20.8125 32.3986 20 30.4654 20 28.1974C20 25.9295 20.8125 23.9963 22.4375 22.3978C24.0625 20.7992 26.0278 20 28.3333 20C30.6389 20 32.6042 20.7992 34.2292 22.3978C35.8542 23.9963 36.6667 25.9295 36.6667 28.1974C36.6667 30.4654 35.8542 32.3986 34.2292 33.9971C32.6042 35.5956 30.6389 36.3949 28.3333 36.3949ZM20 36.3949C16.1389 35.4385 12.9514 33.2594 10.4375 29.8574C7.92361 26.4555 6.66666 22.6778 6.66666 18.5245V8.52358L20 3.60511L33.3333 8.52358V17.8277C32.6111 17.4725 31.7986 17.1992 30.8958 17.0079C29.9931 16.8167 29.1389 16.721 28.3333 16.721C25.1111 16.721 22.3611 17.8413 20.0833 20.082C17.8056 22.3226 16.6667 25.0278 16.6667 28.1974C16.6667 29.8916 16.9931 31.4218 17.6458 32.788C18.2986 34.1543 19.125 35.3429 20.125 36.3539C20.0972 36.3539 20.0764 36.3607 20.0625 36.3744C20.0486 36.3881 20.0278 36.3949 20 36.3949ZM28.3333 28.1974C29.0278 28.1974 29.6181 27.9584 30.1042 27.4802C30.5903 27.002 30.8333 26.4213 30.8333 25.7382C30.8333 25.0551 30.5903 24.4744 30.1042 23.9963C29.6181 23.5181 29.0278 23.279 28.3333 23.279C27.6389 23.279 27.0486 23.5181 26.5625 23.9963C26.0764 24.4744 25.8333 25.0551 25.8333 25.7382C25.8333 26.4213 26.0764 27.002 26.5625 27.4802C27.0486 27.9584 27.6389 28.1974 28.3333 28.1974ZM28.3333 33.1159C29.1944 33.1159 29.9861 32.9178 30.7083 32.5216C31.4306 32.1254 32.0139 31.5994 32.4583 30.9436C31.8472 30.5884 31.1944 30.3151 30.5 30.1238C29.8056 29.9326 29.0833 29.8369 28.3333 29.8369C27.5833 29.8369 26.8611 29.9326 26.1667 30.1238C25.4722 30.3151 24.8194 30.5884 24.2083 30.9436C24.6528 31.5994 25.2361 32.1254 25.9583 32.5216C26.6806 32.9178 27.4722 33.1159 28.3333 33.1159Z" fill="white"/>
</g>
</svg>