<svg width="40" height="40" viewBox="0 0 40 40" fill="none" xmlns="http://www.w3.org/2000/svg">
<mask id="mask0_1549_908" style="mask-type:alpha" maskUnits="userSpaceOnUse" x="0" y="0" width="40" height="40">
<rect y="0.326172" width="40" height="39.3477" fill="#D9D9D9"/>
</mask>
<g mask="url(#mask0_1549_908)">
<path d="M8.33333 34.7554C7.41667 34.7554 6.63194 34.4344 5.97917 33.7922C5.32639 33.1501 5 32.3782 5 31.4764V8.52361C5 7.62189 5.32639 6.84996 5.97917 6.20783C6.63194 5.5657 7.41667 5.24463 8.33333 5.24463H31.6667C32.5833 5.24463 33.3681 5.5657 34.0208 6.20783C34.6736 6.84996 35 7.62189 35 8.52361V31.4764C35 32.3782 34.6736 33.1501 34.0208 33.7922C33.3681 34.4344 32.5833 34.7554 31.6667 34.7554H8.33333ZM11.6667 28.1975H23.3333V24.9185H11.6667V28.1975ZM11.6667 21.6395H28.3333V18.3605H11.6667V21.6395ZM11.6667 15.0816H28.3333V11.8026H11.6667V15.0816Z" fill="white"/>
</g>
</svg>
