<svg width="40" height="40" viewBox="0 0 40 40" fill="none" xmlns="http://www.w3.org/2000/svg">
<mask id="mask0_1549_913" style="mask-type:alpha" maskUnits="userSpaceOnUse" x="0" y="0" width="40" height="40">
<rect y="0.326172" width="40" height="39.3477" fill="#D9D9D9"/>
</mask>
<g mask="url(#mask0_1549_913)">
<path d="M8.33348 34.7554C6.91681 34.7554 5.90987 34.1338 5.31264 32.8905C4.71542 31.6472 4.86126 30.4928 5.75014 29.4271L15.0001 18.3605V8.52361H13.3335C12.8613 8.52361 12.4654 8.36649 12.146 8.05225C11.8265 7.73802 11.6668 7.34864 11.6668 6.88412C11.6668 6.4196 11.8265 6.03022 12.146 5.71598C12.4654 5.40175 12.8613 5.24463 13.3335 5.24463H26.6668C27.139 5.24463 27.5349 5.40175 27.8543 5.71598C28.1738 6.03022 28.3335 6.4196 28.3335 6.88412C28.3335 7.34864 28.1738 7.73802 27.8543 8.05225C27.5349 8.36649 27.139 8.52361 26.6668 8.52361H25.0001V18.3605L34.2501 29.4271C35.139 30.4928 35.2849 31.6472 34.6876 32.8905C34.0904 34.1338 33.0835 34.7554 31.6668 34.7554H8.33348ZM11.6668 29.837H28.3335L22.6668 23.279H17.3335L11.6668 29.837Z" fill="white"/>
</g>
</svg>
