<svg width="38" height="38" viewBox="0 0 38 38" fill="none" xmlns="http://www.w3.org/2000/svg">
<path d="M14.25 20.5835H23.75V33.2502H14.25V20.5835Z" fill="url(#paint0_linear_1673_67)"/>
<path d="M21.2958 7.1773C20.6534 6.63583 19.8402 6.33887 19 6.33887C18.1598 6.33887 17.3466 6.63583 16.7042 7.1773L6.01667 16.1944C5.61998 16.5287 5.30109 16.9456 5.08231 17.416C4.86352 17.8864 4.75011 18.3989 4.75 18.9177V30.484C4.75 32.0135 5.99133 33.2548 7.52083 33.2548H15.0417V24.1459C15.0417 23.0692 15.8998 22.1952 16.9686 22.1667H21.0314C21.5472 22.1803 22.0373 22.3949 22.3972 22.7646C22.7572 23.1343 22.9585 23.6299 22.9583 24.1459V33.2548H30.4792C31.214 33.2548 31.9188 32.9629 32.4384 32.4432C32.9581 31.9236 33.25 31.2188 33.25 30.484V18.9177C33.2499 18.3989 33.1365 17.8864 32.9177 17.416C32.6989 16.9456 32.38 16.5287 31.9833 16.1944L21.2958 7.1773Z" fill="url(#paint1_linear_1673_67)"/>
<path fill-rule="evenodd" clip-rule="evenodd" d="M20.2731 3.64016C19.9194 3.33462 19.4675 3.1665 19.0001 3.1665C18.5327 3.1665 18.0809 3.33462 17.7271 3.64016L3.81119 15.721C3.62351 15.8821 3.47009 16.0792 3.36003 16.3008C3.24996 16.5223 3.18548 16.7636 3.17042 17.0105C3.15536 17.2574 3.19002 17.5048 3.27235 17.738C3.35467 17.9713 3.48299 18.1856 3.64969 18.3683C3.99194 18.7419 4.46631 18.9675 4.97212 18.997C5.47792 19.0266 5.97534 18.8579 6.35877 18.5267L19.0001 7.55416L31.6414 18.5267C32.4331 19.2154 33.6459 19.1442 34.3489 18.3683C34.516 18.1857 34.6446 17.9713 34.7272 17.738C34.8098 17.5046 34.8447 17.2571 34.8298 17.01C34.8149 16.7629 34.7505 16.5214 34.6404 16.2997C34.5303 16.078 34.3768 15.8806 34.189 15.7194L20.2731 3.64016Z" fill="url(#paint2_linear_1673_67)"/>
<path fill-rule="evenodd" clip-rule="evenodd" d="M17.727 3.64016C18.0808 3.33462 18.5326 3.1665 19 3.1665C19.4675 3.1665 19.9193 3.33462 20.273 3.64016L34.189 15.721C34.9806 16.4082 35.0534 17.5941 34.3504 18.3683C34.0082 18.7419 33.5338 18.9675 33.028 18.997C32.5222 19.0266 32.0248 18.8579 31.6414 18.5267L19 7.55416L6.3587 18.5251C5.97535 18.8558 5.47828 19.0242 4.97286 18.9947C4.46743 18.9651 3.99338 18.7399 3.6512 18.3667C3.48416 18.1841 3.35551 17.9697 3.27291 17.7364C3.19031 17.503 3.15543 17.2555 3.17035 17.0084C3.18527 16.7613 3.24967 16.5198 3.35974 16.2981C3.46982 16.0764 3.62331 15.8791 3.81112 15.7178L17.727 3.64016Z" fill="url(#paint3_linear_1673_67)"/>
<defs>
<linearGradient id="paint0_linear_1673_67" x1="19" y1="20.5835" x2="10.6194" y2="34.5564" gradientUnits="userSpaceOnUse">
<stop stop-color="#944600"/>
<stop offset="1" stop-color="#CD8E02"/>
</linearGradient>
<linearGradient id="paint1_linear_1673_67" x1="7.47017" y1="5.02238" x2="34.1493" y2="27.9823" gradientUnits="userSpaceOnUse">
<stop stop-color="#FFD394"/>
<stop offset="1" stop-color="#FFB357"/>
</linearGradient>
<linearGradient id="paint2_linear_1673_67" x1="13.8828" y1="-0.593677" x2="20.8399" y2="18.2163" gradientUnits="userSpaceOnUse">
<stop stop-color="#FF921F"/>
<stop offset="1" stop-color="#EB4824"/>
</linearGradient>
<linearGradient id="paint3_linear_1673_67" x1="13.8827" y1="-0.593677" x2="20.8399" y2="18.2163" gradientUnits="userSpaceOnUse">
<stop stop-color="#FF921F"/>
<stop offset="1" stop-color="#EB4824"/>
</linearGradient>
</defs>
</svg>