<svg width="86" height="85" viewBox="0 0 86 85" fill="none" xmlns="http://www.w3.org/2000/svg">
<rect width="86" height="85" rx="10" fill="#81C784" fill-opacity="0.26"/>
<path d="M22 72C20.35 72 18.9375 71.4125 17.7625 70.2375C16.5875 69.0625 16 67.65 16 66V24C16 22.35 16.5875 20.9375 17.7625 19.7625C18.9375 18.5875 20.35 18 22 18H34.525C35.075 16.25 36.15 14.8125 37.75 13.6875C39.35 12.5625 41.1 12 43 12C45 12 46.7875 12.5625 48.3625 13.6875C49.9375 14.8125 51 16.25 51.55 18H64C65.65 18 67.0625 18.5875 68.2375 19.7625C69.4125 20.9375 70 22.35 70 24V66C70 67.65 69.4125 69.0625 68.2375 70.2375C67.0625 71.4125 65.65 72 64 72H22ZM22 66H64V24H58V33H28V24H22V66ZM43 24C43.85 24 44.5625 23.7125 45.1375 23.1375C45.7125 22.5625 46 21.85 46 21C46 20.15 45.7125 19.4375 45.1375 18.8625C44.5625 18.2875 43.85 18 43 18C42.15 18 41.4375 18.2875 40.8625 18.8625C40.2875 19.4375 40 20.15 40 21C40 21.85 40.2875 22.5625 40.8625 23.1375C41.4375 23.7125 42.15 24 43 24Z" fill="#449047"/>
</svg>
