<svg width="33" height="34" viewBox="0 0 33 34" fill="none" xmlns="http://www.w3.org/2000/svg">
<path d="M10.9764 13.6616L20.6973 11.5752L26.9305 14.5024L10.1369 31.296C9.02338 32.4097 7.5131 33.0354 5.93828 33.0355C4.36346 33.0356 2.8531 32.4101 1.73946 31.2966C0.625813 30.1831 0.000111376 28.6728 1.48675e-08 27.098C-0.000111347 25.5232 0.625376 24.0128 1.73886 22.8992L2.99405 21.644L4.24924 21.7473V20.3888L8.04568 16.5924L9.29136 16.5568V15.3467L10.9764 13.6616Z" fill="#C3EF3C"/>
<path d="M22.3124 1.48624C21.9783 1.15208 21.5251 0.964355 21.0525 0.964355C20.5799 0.964355 20.1267 1.15208 19.7926 1.48624C19.4584 1.82039 19.2707 2.27361 19.2707 2.74618C19.2707 3.21874 19.4584 3.67196 19.7926 4.00611L20.2129 4.4253L14.3051 10.3331L14.7599 11.5752L13.1022 11.5361L10.9766 13.6617L26.9306 14.5012L28.6098 12.8221L29.0301 13.2425C29.1938 13.4154 29.3904 13.5538 29.6085 13.6494C29.8265 13.745 30.0615 13.796 30.2996 13.7992C30.5376 13.8025 30.7739 13.758 30.9945 13.6684C31.2151 13.5787 31.4154 13.4458 31.5837 13.2774C31.752 13.109 31.8849 12.9086 31.9744 12.688C32.064 12.4674 32.1083 12.231 32.105 11.993C32.1016 11.7549 32.0506 11.5199 31.9548 11.3019C31.8591 11.084 31.7206 10.8874 31.5476 10.7238L22.3124 1.48624Z" fill="#AEDDFF"/>
<path d="M14.3347 10.3032L17.0636 13.0321C17.1511 13.1136 17.2212 13.212 17.2699 13.3212C17.3186 13.4305 17.3448 13.5484 17.3469 13.668C17.349 13.7876 17.327 13.9063 17.2822 14.0172C17.2374 14.1281 17.1707 14.2289 17.0862 14.3135C17.0016 14.398 16.9009 14.4647 16.79 14.5095C16.6791 14.5543 16.5603 14.5763 16.4407 14.5742C16.3211 14.5721 16.2032 14.5459 16.0939 14.4972C15.9847 14.4485 15.8863 14.3784 15.8048 14.2908L13.0736 11.5632L14.3347 10.3032ZM9.29731 15.3418L12.025 18.0707C12.1823 18.2395 12.268 18.4628 12.2639 18.6935C12.2598 18.9243 12.1664 19.1444 12.0032 19.3076C11.84 19.4708 11.6199 19.5642 11.3891 19.5683C11.1584 19.5724 10.9351 19.4867 10.7663 19.3294L8.03737 16.6005L9.29731 15.3418ZM6.98762 23.108L4.25875 20.3792L3 21.6379L5.72769 24.368C5.89558 24.5303 6.12052 24.6202 6.35404 24.6182C6.58756 24.6163 6.81098 24.5228 6.97619 24.3577C7.1414 24.1927 7.23517 23.9693 7.23731 23.7358C7.23945 23.5023 7.14978 23.2761 6.98762 23.108Z" fill="#008463"/>
</svg>