<svg width="40" height="40" viewBox="0 0 40 40" fill="none" xmlns="http://www.w3.org/2000/svg">
<mask id="mask0_1549_891" style="mask-type:alpha" maskUnits="userSpaceOnUse" x="0" y="0" width="40" height="40">
<rect y="0.326172" width="40" height="39.3477" fill="#D9D9D9"/>
</mask>
<g mask="url(#mask0_1549_891)">
<path d="M20.0002 36.3948C17.6946 36.3948 15.7293 35.5955 14.1043 33.997C12.4793 32.3985 11.6668 30.4653 11.6668 28.1973V13.4419C10.7502 13.4419 9.96544 13.1208 9.31266 12.4787C8.65989 11.8366 8.3335 11.0647 8.3335 10.1629V6.88396C8.3335 5.98224 8.65989 5.21031 9.31266 4.56818C9.96544 3.92605 10.7502 3.60498 11.6668 3.60498H28.3335C29.2502 3.60498 30.0349 3.92605 30.6877 4.56818C31.3404 5.21031 31.6668 5.98224 31.6668 6.88396V10.1629C31.6668 11.0647 31.3404 11.8366 30.6877 12.4787C30.0349 13.1208 29.2502 13.4419 28.3335 13.4419V28.1973C28.3335 30.4653 27.521 32.3985 25.896 33.997C24.271 35.5955 22.3057 36.3948 20.0002 36.3948ZM20.0002 33.1158C21.3891 33.1158 22.5696 32.6376 23.5418 31.6812C24.5141 30.7249 25.0002 29.5636 25.0002 28.1973H20.0002V24.9183H25.0002V21.6394H20.0002V18.3604H25.0002V13.4419H15.0002V28.1973C15.0002 29.5636 15.4863 30.7249 16.4585 31.6812C17.4307 32.6376 18.6113 33.1158 20.0002 33.1158Z" fill="white"/>
</g>
</svg>
