<svg width="40" height="40" viewBox="0 0 40 40" fill="none" xmlns="http://www.w3.org/2000/svg">
<mask id="mask0_1549_923" style="mask-type:alpha" maskUnits="userSpaceOnUse" x="0" y="0" width="40" height="40">
<rect y="0.326172" width="40" height="39.3477" fill="#D9D9D9"/>
</mask>
<g mask="url(#mask0_1549_923)">
<path d="M33.5833 21.6395H13.3333V18.3605H33.5833L31 15.8193L33.3333 13.4421L40 20L33.3333 26.558L31 24.1807L33.5833 21.6395ZM25 15.0816V8.52361H8.33333V31.4764H25V24.9185H28.3333V31.4764C28.3333 32.3782 28.0069 33.1501 27.3542 33.7922C26.7014 34.4344 25.9167 34.7554 25 34.7554H8.33333C7.41667 34.7554 6.63194 34.4344 5.97917 33.7922C5.32639 33.1501 5 32.3782 5 31.4764V8.52361C5 7.62189 5.32639 6.84996 5.97917 6.20783C6.63194 5.5657 7.41667 5.24463 8.33333 5.24463H25C25.9167 5.24463 26.7014 5.5657 27.3542 6.20783C28.0069 6.84996 28.3333 7.62189 28.3333 8.52361V15.0816H25Z" fill="white"/>
</g>
</svg>