<svg width="86" height="85" viewBox="0 0 86 85" fill="none" xmlns="http://www.w3.org/2000/svg">
<rect width="86" height="85" rx="10" fill="#81C784" fill-opacity="0.26"/>
<mask id="mask0_485_32" style="mask-type:alpha" maskUnits="userSpaceOnUse" x="7" y="3" width="72" height="72">
<rect x="7" y="3" width="72" height="72" fill="#D9D9D9"/>
</mask>
<g mask="url(#mask0_485_32)">
</g>
<path d="M22.0001 66C19.4501 66 17.6376 64.8625 16.5626 62.5875C15.4876 60.3125 15.7501 58.2 17.3501 56.25L34.0001 36V18H31.0001C30.1501 18 29.4376 17.7125 28.8626 17.1375C28.2876 16.5625 28.0001 15.85 28.0001 15C28.0001 14.15 28.2876 13.4375 28.8626 12.8625C29.4376 12.2875 30.1501 12 31.0001 12H55.0001C55.8501 12 56.5626 12.2875 57.1376 12.8625C57.7126 13.4375 58.0001 14.15 58.0001 15C58.0001 15.85 57.7126 16.5625 57.1376 17.1375C56.5626 17.7125 55.8501 18 55.0001 18H52.0001V36L68.6501 56.25C70.2501 58.2 70.5126 60.3125 69.4376 62.5875C68.3626 64.8625 66.5501 66 64.0001 66H22.0001Z" fill="#2E7D32"/>
</svg>
